<svg width="150" height="150" viewBox="0 0 150 150" fill="none" xmlns="http://www.w3.org/2000/svg">
<rect width="150" height="150" rx="15" fill="#D1DCFF"/>
<path d="M44.024 109.5V42.3H73.4C80.696 42.3 87.096 43.708 92.6 46.524C98.104 49.34 102.392 53.244 105.464 58.236C108.536 63.228 110.072 69.116 110.072 75.9C110.072 82.62 108.536 88.508 105.464 93.564C102.392 98.556 98.104 102.46 92.6 105.276C87.096 108.092 80.696 109.5 73.4 109.5H44.024ZM56.504 98.94H72.824C77.88 98.94 82.232 97.98 85.88 96.06C89.592 94.14 92.44 91.452 94.424 87.996C96.472 84.54 97.496 80.508 97.496 75.9C97.496 71.228 96.472 67.196 94.424 63.804C92.44 60.348 89.592 57.66 85.88 55.74C82.232 53.82 77.88 52.86 72.824 52.86H56.504V98.94Z" fill="black"/>
</svg>
