<svg width="28" height="28" viewBox="0 0 28 28" fill="none" xmlns="http://www.w3.org/2000/svg">
<rect width="28" height="28" rx="14" fill="#D9D9D9"/>
<path d="M8.39 20V7.4H13.7C15.044 7.4 16.226 7.664 17.246 8.192C18.278 8.72 19.076 9.458 19.64 10.406C20.216 11.354 20.504 12.452 20.504 13.7C20.504 14.948 20.216 16.046 19.64 16.994C19.076 17.942 18.278 18.68 17.246 19.208C16.226 19.736 15.044 20 13.7 20H8.39ZM10.19 18.434H13.592C14.636 18.434 15.536 18.236 16.292 17.84C17.06 17.444 17.654 16.892 18.074 16.184C18.494 15.464 18.704 14.636 18.704 13.7C18.704 12.752 18.494 11.924 18.074 11.216C17.654 10.508 17.06 9.956 16.292 9.56C15.536 9.164 14.636 8.966 13.592 8.966H10.19V18.434Z" fill="black"/>
</svg>
