<svg width="22" height="22" viewBox="0 0 22 22" fill="none" xmlns="http://www.w3.org/2000/svg">
<rect width="22" height="22" rx="9.16667" fill="white"/>
<path d="M21.6684 13.661C20.1993 19.5539 14.2307 23.1402 8.33711 21.6707C2.44597 20.2015 -1.14034 14.2326 0.329434 8.34017C1.79792 2.44661 7.76649 -1.13997 13.6583 0.329158C19.5515 1.79829 23.1376 7.76788 21.6683 13.6611L21.6684 13.661H21.6684Z" fill="#F3BA2F"/>
<path fill-rule="evenodd" clip-rule="evenodd" d="M10.9998 6.98136L8.15143 9.82974L8.15149 9.82962L6.49422 8.17229L10.9998 3.66669L15.5069 8.17364L13.8496 9.83097L10.9998 6.98136ZM5.3239 9.3424L3.6665 11L5.32378 12.6571L6.98117 10.9997L5.3239 9.3424ZM8.15143 12.1705L10.9998 15.0187L13.8495 12.1691L15.5077 13.8256L15.5069 13.8265L10.9998 18.3334L6.49421 13.8278L6.49187 13.8254L8.15143 12.1705ZM16.6759 9.34333L15.0185 11.0007L16.6758 12.658L18.3331 11.0006L16.6759 9.34333Z" fill="white"/>
<path d="M12.6809 10.9991H12.6816L11 9.31738L9.75703 10.56L9.61424 10.7029L9.31973 10.9974L9.31738 10.9997L9.31973 11.0021L11 12.6826L12.6817 11.0009L12.6826 10.9999L12.681 10.9991" fill="white"/>
</svg>
