<svg width="22" height="22" viewBox="0 0 22 22" fill="none" xmlns="http://www.w3.org/2000/svg">
<rect width="22" height="22" rx="11" fill="white"/>
<path d="M21.6709 13.661C20.2017 19.5539 14.2332 23.1402 8.33955 21.6707C2.44841 20.2015 -1.1379 14.2326 0.331875 8.34017C1.80036 2.44661 7.76893 -1.13997 13.6607 0.329158C19.5539 1.79829 23.14 7.76788 21.6707 13.6611L21.6708 13.661H21.6709Z" fill="#F7931A"/>
<path fill-rule="evenodd" clip-rule="evenodd" d="M15.8519 9.43275C16.0709 7.96889 14.9564 7.18201 13.4324 6.65708L13.9268 4.67415L12.7197 4.37338L12.2384 6.3041C11.9211 6.22495 11.5952 6.15038 11.2713 6.07645L11.7561 4.13299L10.5498 3.83221L10.0551 5.8145C9.79253 5.75471 9.53461 5.69562 9.28438 5.63335L9.28578 5.62712L7.62121 5.21145L7.30011 6.50067C7.30011 6.50067 8.19565 6.70595 8.17678 6.71859C8.66558 6.84059 8.75397 7.16416 8.73929 7.42062L8.17614 9.67964C8.20979 9.68819 8.25345 9.70056 8.30163 9.71992L8.26658 9.71117L8.26649 9.71114C8.23673 9.7037 8.2058 9.69596 8.17404 9.68835L7.38468 12.8529C7.32495 13.0014 7.17333 13.2243 6.83158 13.1397C6.84368 13.1572 5.95427 12.9207 5.95427 12.9207L5.35498 14.3024L6.92578 14.694C7.0977 14.7371 7.26758 14.7814 7.43575 14.8252L7.43601 14.8253L7.43608 14.8253C7.55365 14.856 7.67038 14.8864 7.78638 14.9161L7.28688 16.9217L8.49255 17.2225L8.98721 15.2381C9.31659 15.3275 9.63623 15.41 9.94916 15.4878L9.45617 17.4628L10.6633 17.7636L11.1627 15.7617C13.221 16.1512 14.7687 15.9941 15.4202 14.1324C15.9451 12.6335 15.394 11.7689 14.3112 11.2051C15.0999 11.0232 15.6939 10.5045 15.8523 9.43291L15.852 9.43264L15.8519 9.43275ZM13.094 13.3C12.7518 14.6752 10.5992 14.1067 9.61434 13.8465C9.52574 13.8231 9.44659 13.8022 9.37906 13.7855L10.0419 11.1283C10.1242 11.1488 10.2248 11.1714 10.3387 11.197C11.3574 11.4256 13.4447 11.894 13.0941 13.3H13.094ZM10.5431 9.96373C11.3642 10.1829 13.1554 10.6609 13.4673 9.41102H13.4675C13.786 8.1327 12.0452 7.74729 11.195 7.55906C11.0994 7.53788 11.015 7.5192 10.9461 7.50203L10.3451 9.91192C10.4019 9.92606 10.4685 9.94383 10.5431 9.96373Z" fill="white"/>
</svg>
