<svg width="24" height="24" viewBox="0 0 24 24" fill="none" xmlns="http://www.w3.org/2000/svg">
<path d="M11.9999 2.25C10.3166 2.24963 8.66188 2.68508 7.19679 3.51396C5.7317 4.34285 4.50616 5.53692 3.63947 6.97997C2.77277 8.42301 2.29444 10.0659 2.25104 11.7486C2.20764 13.4314 2.60065 15.0967 3.39181 16.5825L2.32774 19.7747C2.2396 20.039 2.22681 20.3226 2.2908 20.5938C2.35479 20.8649 2.49304 21.1129 2.69004 21.3099C2.88704 21.5069 3.13502 21.6451 3.40618 21.7091C3.67733 21.7731 3.96095 21.7603 4.22524 21.6722L7.41743 20.6081C8.72503 21.3036 10.1739 21.6921 11.654 21.744C13.1342 21.7959 14.6067 21.51 15.9598 20.9079C17.3129 20.3057 18.5111 19.4033 19.4634 18.269C20.4156 17.1346 21.097 15.7983 21.4557 14.3613C21.8144 12.9244 21.841 11.4246 21.5335 9.97578C21.226 8.52701 20.5925 7.16732 19.6811 5.99992C18.7697 4.83253 17.6043 3.88811 16.2733 3.23836C14.9424 2.58861 13.481 2.25061 11.9999 2.25ZM14.9999 14.25H8.99993C8.80102 14.25 8.61025 14.171 8.4696 14.0303C8.32895 13.8897 8.24993 13.6989 8.24993 13.5C8.24993 13.3011 8.32895 13.1103 8.4696 12.9697C8.61025 12.829 8.80102 12.75 8.99993 12.75H14.9999C15.1988 12.75 15.3896 12.829 15.5303 12.9697C15.6709 13.1103 15.7499 13.3011 15.7499 13.5C15.7499 13.6989 15.6709 13.8897 15.5303 14.0303C15.3896 14.171 15.1988 14.25 14.9999 14.25ZM14.9999 11.25H8.99993C8.80102 11.25 8.61025 11.171 8.4696 11.0303C8.32895 10.8897 8.24993 10.6989 8.24993 10.5C8.24993 10.3011 8.32895 10.1103 8.4696 9.96967C8.61025 9.82902 8.80102 9.75 8.99993 9.75H14.9999C15.1988 9.75 15.3896 9.82902 15.5303 9.96967C15.6709 10.1103 15.7499 10.3011 15.7499 10.5C15.7499 10.6989 15.6709 10.8897 15.5303 11.0303C15.3896 11.171 15.1988 11.25 14.9999 11.25Z" fill="#F7F7F7"/>
</svg>
