<svg width="19" height="18" viewBox="0 0 19 18" fill="none" xmlns="http://www.w3.org/2000/svg">
<path d="M14.75 3H1.25C1.05109 3 0.860322 3.07902 0.71967 3.21967C0.579018 3.36032 0.5 3.55109 0.5 3.75V17.25C0.5 17.4489 0.579018 17.6397 0.71967 17.7803C0.860322 17.921 1.05109 18 1.25 18H14.75C14.9489 18 15.1397 17.921 15.2803 17.7803C15.421 17.6397 15.5 17.4489 15.5 17.25V3.75C15.5 3.55109 15.421 3.36032 15.2803 3.21967C15.1397 3.07902 14.9489 3 14.75 3ZM14 16.5H2V4.5H14V16.5ZM18.5 0.75V14.25C18.5 14.4489 18.421 14.6397 18.2803 14.7803C18.1397 14.921 17.9489 15 17.75 15C17.5511 15 17.3603 14.921 17.2197 14.7803C17.079 14.6397 17 14.4489 17 14.25V1.5H4.25C4.05109 1.5 3.86032 1.42098 3.71967 1.28033C3.57902 1.13968 3.5 0.948912 3.5 0.75C3.5 0.551088 3.57902 0.360322 3.71967 0.21967C3.86032 0.0790178 4.05109 0 4.25 0H17.75C17.9489 0 18.1397 0.0790178 18.2803 0.21967C18.421 0.360322 18.5 0.551088 18.5 0.75Z" fill="#202941" fill-opacity="0.5"/>
</svg>
