<svg width="50" height="50" viewBox="0 0 50 50" fill="none" xmlns="http://www.w3.org/2000/svg">
<rect width="50" height="50" rx="5" fill="#F7F7F7"/>
<path d="M34 17.5H16C15.8011 17.5 15.6103 17.579 15.4697 17.7197C15.329 17.8603 15.25 18.0511 15.25 18.25V31C15.25 31.3978 15.408 31.7794 15.6893 32.0607C15.9706 32.342 16.3522 32.5 16.75 32.5H33.25C33.6478 32.5 34.0294 32.342 34.3107 32.0607C34.592 31.7794 34.75 31.3978 34.75 31V18.25C34.75 18.0511 34.671 17.8603 34.5303 17.7197C34.3897 17.579 34.1989 17.5 34 17.5ZM32.0716 19L25 25.4828L17.9284 19H32.0716ZM33.25 31H16.75V19.9553L24.4928 27.0531C24.6312 27.1801 24.8122 27.2506 25 27.2506C25.1878 27.2506 25.3688 27.1801 25.5072 27.0531L33.25 19.9553V31Z" fill="#202941"/>
</svg>
