<svg width="20" height="20" viewBox="0 0 20 20" fill="none" xmlns="http://www.w3.org/2000/svg">
<path fill-rule="evenodd" clip-rule="evenodd" d="M10 19C14.9706 19 19 14.9706 19 10C19 5.02944 14.9706 1 10 1C5.02944 1 1 5.02944 1 10C1 14.9706 5.02944 19 10 19ZM10.8634 15.0769C10.9775 14.9062 11.0384 14.7054 11.0384 14.5C11.0384 14.2246 10.929 13.9604 10.7342 13.7657C10.5395 13.5709 10.2753 13.4615 9.99993 13.4615C9.79454 13.4615 9.59377 13.5224 9.42299 13.6365C9.25222 13.7506 9.11911 13.9128 9.04052 14.1026C8.96192 14.2923 8.94135 14.5011 8.98142 14.7026C9.02149 14.904 9.12039 15.0891 9.26562 15.2343C9.41086 15.3795 9.59589 15.4784 9.79733 15.5185C9.99878 15.5586 10.2076 15.538 10.3973 15.4594C10.5871 15.3808 10.7493 15.2477 10.8634 15.0769ZM6.53839 8.26922C6.53839 6.55143 8.09089 5.15384 9.99993 5.15384C11.909 5.15384 13.4615 6.55143 13.4615 8.26922C13.4615 9.77326 12.2707 11.0324 10.6922 11.3223V11.3846C10.6922 11.5682 10.6193 11.7443 10.4895 11.8741C10.3596 12.004 10.1835 12.0769 9.99993 12.0769C9.81632 12.0769 9.64023 12.004 9.51039 11.8741C9.38056 11.7443 9.30762 11.5682 9.30762 11.3846V10.6923C9.30762 10.5087 9.38056 10.3326 9.51039 10.2028C9.64023 10.0729 9.81632 9.99999 9.99993 9.99999C11.1448 9.99999 12.0769 9.22115 12.0769 8.26922C12.0769 7.3173 11.1448 6.53845 9.99993 6.53845C8.85503 6.53845 7.92301 7.3173 7.92301 8.26922V8.61538C7.92301 8.79899 7.85007 8.97508 7.72023 9.10491C7.5904 9.23474 7.41431 9.30768 7.2307 9.30768C7.04709 9.30768 6.871 9.23474 6.74116 9.10491C6.61133 8.97508 6.53839 8.79899 6.53839 8.61538V8.26922Z" fill="#202941" fill-opacity="0.5"/>
</svg>
