<svg width="26" height="26" viewBox="0 0 26 26" fill="none" xmlns="http://www.w3.org/2000/svg">
<path d="M21.6997 18.4498L18.4497 21.6998C18.2973 21.8523 18.0905 21.9379 17.8749 21.9379C17.6593 21.9379 17.4525 21.8523 17.3001 21.6998C17.1476 21.5474 17.062 21.3406 17.062 21.125C17.062 20.9094 17.1476 20.7026 17.3001 20.5501L19.1637 18.6875H4.87491C4.65942 18.6875 4.45276 18.6019 4.30038 18.4495C4.14801 18.2971 4.06241 18.0905 4.06241 17.875C4.06241 17.6595 4.14801 17.4528 4.30038 17.3004C4.45276 17.1481 4.65942 17.0625 4.87491 17.0625H19.1637L17.3001 15.1998C17.1476 15.0474 17.062 14.8406 17.062 14.625C17.062 14.4094 17.1476 14.2026 17.3001 14.0501C17.4525 13.8977 17.6593 13.812 17.8749 13.812C18.0905 13.812 18.2973 13.8977 18.4497 14.0501L21.6997 17.3001C21.7753 17.3756 21.8352 17.4652 21.8761 17.5638C21.917 17.6625 21.938 17.7682 21.938 17.875C21.938 17.9817 21.917 18.0875 21.8761 18.1861C21.8352 18.2847 21.7753 18.3744 21.6997 18.4498ZM7.55006 11.9498C7.70252 12.1023 7.9093 12.1879 8.12491 12.1879C8.34051 12.1879 8.54729 12.1023 8.69975 11.9498C8.85221 11.7974 8.93786 11.5906 8.93786 11.375C8.93786 11.1594 8.85221 10.9526 8.69975 10.8001L6.83608 8.93746H21.1249C21.3404 8.93746 21.5471 8.85186 21.6994 8.69949C21.8518 8.54711 21.9374 8.34045 21.9374 8.12496C21.9374 7.90948 21.8518 7.70281 21.6994 7.55044C21.5471 7.39807 21.3404 7.31246 21.1249 7.31246H6.83608L8.69975 5.44981C8.85221 5.29735 8.93786 5.09057 8.93786 4.87496C8.93786 4.65936 8.85221 4.45258 8.69975 4.30012C8.54729 4.14766 8.34051 4.06201 8.12491 4.06201C7.9093 4.06201 7.70252 4.14766 7.55006 4.30012L4.30006 7.55012C4.22452 7.62558 4.16459 7.71519 4.1237 7.81382C4.08281 7.91246 4.06177 8.01819 4.06177 8.12496C4.06177 8.23174 4.08281 8.33747 4.1237 8.4361C4.16459 8.53474 4.22452 8.62435 4.30006 8.69981L7.55006 11.9498Z" fill="#202941"/>
</svg>
