<svg width="233" height="32" viewBox="0 0 233 32" fill="none" xmlns="http://www.w3.org/2000/svg">
<path d="M8.216 25.364C6.72533 25.364 5.28667 25.182 3.9 24.818C2.53067 24.4367 1.41267 23.9513 0.546 23.362L2.236 19.566C3.05067 20.086 3.98667 20.5193 5.044 20.866C6.11867 21.1953 7.18467 21.36 8.242 21.36C8.95267 21.36 9.52467 21.2993 9.958 21.178C10.3913 21.0393 10.7033 20.866 10.894 20.658C11.102 20.4327 11.206 20.1727 11.206 19.878C11.206 19.462 11.0153 19.1327 10.634 18.89C10.2527 18.6473 9.75867 18.448 9.152 18.292C8.54533 18.136 7.86933 17.98 7.124 17.824C6.396 17.668 5.65933 17.4687 4.914 17.226C4.186 16.9833 3.51867 16.6713 2.912 16.29C2.30533 15.8913 1.81133 15.38 1.43 14.756C1.04867 14.1147 0.858 13.3087 0.858 12.338C0.858 11.246 1.15267 10.258 1.742 9.374C2.34867 8.49 3.25 7.77933 4.446 7.242C5.642 6.70467 7.13267 6.436 8.918 6.436C10.114 6.436 11.284 6.57467 12.428 6.852C13.5893 7.112 14.6207 7.502 15.522 8.022L13.936 11.844C13.0693 11.376 12.2113 11.0293 11.362 10.804C10.5127 10.5613 9.68933 10.44 8.892 10.44C8.18133 10.44 7.60933 10.518 7.176 10.674C6.74267 10.8127 6.43067 11.0033 6.24 11.246C6.04933 11.4887 5.954 11.766 5.954 12.078C5.954 12.4767 6.136 12.7973 6.5 13.04C6.88133 13.2653 7.37533 13.456 7.982 13.612C8.606 13.7507 9.282 13.898 10.01 14.054C10.7553 14.21 11.492 14.4093 12.22 14.652C12.9653 14.8773 13.6413 15.1893 14.248 15.588C14.8547 15.9693 15.34 16.4807 15.704 17.122C16.0853 17.746 16.276 18.5347 16.276 19.488C16.276 20.5453 15.9727 21.5247 15.366 22.426C14.7767 23.31 13.884 24.0207 12.688 24.558C11.5093 25.0953 10.0187 25.364 8.216 25.364ZM36.776 10.674C37.868 10.674 38.8387 10.8993 39.688 11.35C40.5547 11.7833 41.2307 12.4593 41.716 13.378C42.2187 14.2967 42.47 15.484 42.47 16.94V25H37.53V17.746C37.53 16.7407 37.3393 16.0127 36.958 15.562C36.5767 15.094 36.0567 14.86 35.398 14.86C34.93 14.86 34.5053 14.9727 34.124 15.198C33.7427 15.4233 33.448 15.77 33.24 16.238C33.032 16.6887 32.928 17.278 32.928 18.006V25H27.988V17.746C27.988 16.7407 27.7973 16.0127 27.416 15.562C27.052 15.094 26.532 14.86 25.856 14.86C25.3707 14.86 24.9373 14.9727 24.556 15.198C24.192 15.4233 23.8973 15.77 23.672 16.238C23.464 16.6887 23.36 17.278 23.36 18.006V25H18.42V10.908H23.126V14.834L22.19 13.716C22.71 12.7107 23.4207 11.9567 24.322 11.454C25.2233 10.934 26.2287 10.674 27.338 10.674C28.6033 10.674 29.7127 11.0033 30.666 11.662C31.6367 12.3033 32.2867 13.3087 32.616 14.678L31.004 14.34C31.5067 13.196 32.2607 12.3033 33.266 11.662C34.2887 11.0033 35.4587 10.674 36.776 10.674ZM54.454 25.234C53.258 25.234 52.2353 24.974 51.386 24.454C50.5366 23.9167 49.8866 23.1193 49.436 22.062C49.0026 20.9873 48.786 19.618 48.786 17.954C48.786 16.2727 48.994 14.9033 49.41 13.846C49.826 12.7713 50.45 11.974 51.282 11.454C52.1313 10.934 53.1886 10.674 54.454 10.674C55.7366 10.674 56.898 10.9773 57.938 11.584C58.9953 12.1733 59.8273 13.014 60.434 14.106C61.058 15.1807 61.37 16.4633 61.37 17.954C61.37 19.4447 61.058 20.736 60.434 21.828C59.8273 22.92 58.9953 23.7607 57.938 24.35C56.898 24.9393 55.7366 25.234 54.454 25.234ZM45.588 30.044V10.908H50.294V13.3L50.268 17.954L50.528 22.634V30.044H45.588ZM53.414 21.308C53.9686 21.308 54.4626 21.178 54.896 20.918C55.3466 20.658 55.702 20.2767 55.962 19.774C56.2393 19.2713 56.378 18.6647 56.378 17.954C56.378 17.2433 56.2393 16.6367 55.962 16.134C55.702 15.6313 55.3466 15.25 54.896 14.99C54.4626 14.73 53.9686 14.6 53.414 14.6C52.8593 14.6 52.3566 14.73 51.906 14.99C51.4726 15.25 51.1173 15.6313 50.84 16.134C50.58 16.6367 50.45 17.2433 50.45 17.954C50.45 18.6647 50.58 19.2713 50.84 19.774C51.1173 20.2767 51.4726 20.658 51.906 20.918C52.3566 21.178 52.8593 21.308 53.414 21.308ZM68.6321 13.846H77.0821V17.694H68.6321V13.846ZM68.9961 21.022H78.5121V25H63.9001V6.8H78.1741V10.778H68.9961V21.022ZM79.4207 25L85.8947 16.498L85.7907 19.306L79.5767 10.908H85.1407L88.6247 15.874L86.5447 15.978L90.2367 10.908H95.4627L89.2487 19.124V16.42L95.6447 25H90.0027L86.3627 19.696L88.4427 19.982L84.7767 25H79.4207ZM103.952 25.234C102.392 25.234 100.997 24.922 99.7661 24.298C98.5527 23.674 97.5994 22.816 96.9061 21.724C96.2127 20.6147 95.8661 19.3493 95.8661 17.928C95.8661 16.5067 96.2127 15.25 96.9061 14.158C97.5994 13.066 98.5527 12.2167 99.7661 11.61C100.997 10.986 102.392 10.674 103.952 10.674C105.547 10.674 106.925 11.012 108.086 11.688C109.247 12.364 110.071 13.3173 110.556 14.548L106.734 16.498C106.405 15.8393 105.997 15.3627 105.512 15.068C105.027 14.756 104.498 14.6 103.926 14.6C103.354 14.6 102.834 14.73 102.366 14.99C101.898 15.25 101.525 15.6313 101.248 16.134C100.988 16.6193 100.858 17.2173 100.858 17.928C100.858 18.656 100.988 19.2713 101.248 19.774C101.525 20.2767 101.898 20.658 102.366 20.918C102.834 21.178 103.354 21.308 103.926 21.308C104.498 21.308 105.027 21.1607 105.512 20.866C105.997 20.554 106.405 20.0687 106.734 19.41L110.556 21.36C110.071 22.5907 109.247 23.544 108.086 24.22C106.925 24.896 105.547 25.234 103.952 25.234ZM121.543 10.674C122.635 10.674 123.623 10.8993 124.507 11.35C125.391 11.7833 126.085 12.4593 126.587 13.378C127.107 14.2967 127.367 15.484 127.367 16.94V25H122.427V17.746C122.427 16.7407 122.219 16.0127 121.803 15.562C121.405 15.094 120.841 14.86 120.113 14.86C119.593 14.86 119.117 14.9813 118.683 15.224C118.25 15.4493 117.912 15.8047 117.669 16.29C117.427 16.7753 117.305 17.408 117.305 18.188V25H112.365V5.708H117.305V14.912L116.161 13.742C116.699 12.7193 117.435 11.9567 118.371 11.454C119.307 10.934 120.365 10.674 121.543 10.674ZM139.075 25V22.374L138.737 21.724V16.888C138.737 16.108 138.494 15.51 138.009 15.094C137.541 14.6607 136.787 14.444 135.747 14.444C135.071 14.444 134.386 14.5567 133.693 14.782C132.999 14.99 132.41 15.2847 131.925 15.666L130.261 12.312C131.058 11.792 132.011 11.3933 133.121 11.116C134.247 10.8213 135.365 10.674 136.475 10.674C138.763 10.674 140.531 11.2027 141.779 12.26C143.044 13.3 143.677 14.938 143.677 17.174V25H139.075ZM134.915 25.234C133.788 25.234 132.835 25.0433 132.055 24.662C131.275 24.2807 130.677 23.7607 130.261 23.102C129.862 22.4433 129.663 21.7067 129.663 20.892C129.663 20.0253 129.879 19.28 130.313 18.656C130.763 18.0147 131.448 17.5293 132.367 17.2C133.285 16.8533 134.473 16.68 135.929 16.68H139.257V19.254H136.605C135.807 19.254 135.244 19.384 134.915 19.644C134.603 19.904 134.447 20.2507 134.447 20.684C134.447 21.1173 134.611 21.464 134.941 21.724C135.27 21.984 135.721 22.114 136.293 22.114C136.83 22.114 137.315 21.984 137.749 21.724C138.199 21.4467 138.529 21.0307 138.737 20.476L139.413 22.296C139.153 23.2667 138.641 24.0033 137.879 24.506C137.133 24.9913 136.145 25.234 134.915 25.234ZM155.973 10.674C157.065 10.674 158.053 10.8993 158.937 11.35C159.821 11.7833 160.514 12.4593 161.017 13.378C161.537 14.2967 161.797 15.484 161.797 16.94V25H156.857V17.746C156.857 16.7407 156.649 16.0127 156.233 15.562C155.834 15.094 155.271 14.86 154.543 14.86C154.023 14.86 153.546 14.9813 153.113 15.224C152.68 15.4493 152.342 15.8047 152.099 16.29C151.856 16.7753 151.735 17.408 151.735 18.188V25H146.795V10.908H151.501V14.912L150.591 13.742C151.128 12.7193 151.865 11.9567 152.801 11.454C153.737 10.934 154.794 10.674 155.973 10.674ZM171.966 30.278C170.614 30.278 169.323 30.122 168.092 29.81C166.879 29.498 165.839 29.0387 164.972 28.432L166.766 24.974C167.356 25.442 168.084 25.806 168.95 26.066C169.834 26.3433 170.692 26.482 171.524 26.482C172.859 26.482 173.821 26.1873 174.41 25.598C175 25.026 175.294 24.1853 175.294 23.076V21.412L175.554 17.46L175.528 13.482V10.908H180.234V22.426C180.234 25.0953 179.515 27.0713 178.076 28.354C176.638 29.6367 174.601 30.278 171.966 30.278ZM171.108 24.272C169.86 24.272 168.708 23.9947 167.65 23.44C166.61 22.868 165.77 22.0793 165.128 21.074C164.504 20.0513 164.192 18.8467 164.192 17.46C164.192 16.0733 164.504 14.8773 165.128 13.872C165.77 12.8493 166.61 12.0607 167.65 11.506C168.708 10.9513 169.86 10.674 171.108 10.674C172.304 10.674 173.327 10.9167 174.176 11.402C175.026 11.87 175.667 12.6067 176.1 13.612C176.551 14.6173 176.776 15.9 176.776 17.46C176.776 19.02 176.551 20.3027 176.1 21.308C175.667 22.3133 175.026 23.0587 174.176 23.544C173.327 24.0293 172.304 24.272 171.108 24.272ZM172.278 20.346C172.868 20.346 173.388 20.2247 173.838 19.982C174.306 19.7393 174.67 19.4013 174.93 18.968C175.208 18.5347 175.346 18.032 175.346 17.46C175.346 16.888 175.208 16.3853 174.93 15.952C174.67 15.5187 174.306 15.1893 173.838 14.964C173.388 14.7213 172.868 14.6 172.278 14.6C171.689 14.6 171.16 14.7213 170.692 14.964C170.224 15.1893 169.852 15.5187 169.574 15.952C169.314 16.3853 169.184 16.888 169.184 17.46C169.184 18.032 169.314 18.5347 169.574 18.968C169.852 19.4013 170.224 19.7393 170.692 19.982C171.16 20.2247 171.689 20.346 172.278 20.346ZM190.792 25.234C189.128 25.234 187.672 24.922 186.424 24.298C185.194 23.6567 184.232 22.79 183.538 21.698C182.862 20.5887 182.524 19.332 182.524 17.928C182.524 16.524 182.854 15.276 183.512 14.184C184.188 13.0747 185.116 12.2167 186.294 11.61C187.473 10.986 188.799 10.674 190.272 10.674C191.659 10.674 192.924 10.96 194.068 11.532C195.212 12.0867 196.122 12.91 196.798 14.002C197.474 15.094 197.812 16.42 197.812 17.98C197.812 18.1533 197.804 18.3527 197.786 18.578C197.769 18.8033 197.752 19.0113 197.734 19.202H186.58V16.602H195.108L193.236 17.33C193.254 16.6887 193.132 16.134 192.872 15.666C192.63 15.198 192.283 14.834 191.832 14.574C191.399 14.314 190.888 14.184 190.298 14.184C189.709 14.184 189.189 14.314 188.738 14.574C188.305 14.834 187.967 15.2067 187.724 15.692C187.482 16.16 187.36 16.7147 187.36 17.356V18.11C187.36 18.8033 187.499 19.4013 187.776 19.904C188.071 20.4067 188.487 20.7967 189.024 21.074C189.562 21.334 190.203 21.464 190.948 21.464C191.642 21.464 192.231 21.3687 192.716 21.178C193.219 20.97 193.713 20.658 194.198 20.242L196.798 22.946C196.122 23.6913 195.29 24.2633 194.302 24.662C193.314 25.0433 192.144 25.234 190.792 25.234Z" fill="#202941"/>
<path d="M202.666 25.234C201.834 25.234 201.132 24.9567 200.56 24.402C199.988 23.8473 199.702 23.1453 199.702 22.296C199.702 21.412 199.988 20.71 200.56 20.19C201.132 19.6527 201.834 19.384 202.666 19.384C203.498 19.384 204.2 19.6527 204.772 20.19C205.344 20.71 205.63 21.412 205.63 22.296C205.63 23.1453 205.344 23.8473 204.772 24.402C204.2 24.9567 203.498 25.234 202.666 25.234Z" fill="#6B8FFD"/>
<path d="M208.586 25V10.908H213.526V25H208.586ZM211.056 9.348C210.155 9.348 209.427 9.09667 208.872 8.594C208.317 8.09133 208.04 7.46733 208.04 6.722C208.04 5.97667 208.317 5.35267 208.872 4.85C209.427 4.34733 210.155 4.096 211.056 4.096C211.957 4.096 212.685 4.33867 213.24 4.824C213.795 5.292 214.072 5.89867 214.072 6.644C214.072 7.424 213.795 8.074 213.24 8.594C212.703 9.09667 211.975 9.348 211.056 9.348ZM223.808 25.234C222.266 25.234 220.896 24.922 219.7 24.298C218.504 23.674 217.56 22.816 216.866 21.724C216.19 20.6147 215.852 19.3493 215.852 17.928C215.852 16.5067 216.19 15.25 216.866 14.158C217.56 13.066 218.504 12.2167 219.7 11.61C220.896 10.986 222.266 10.674 223.808 10.674C225.351 10.674 226.72 10.986 227.916 11.61C229.13 12.2167 230.074 13.066 230.75 14.158C231.426 15.25 231.764 16.5067 231.764 17.928C231.764 19.3493 231.426 20.6147 230.75 21.724C230.074 22.816 229.13 23.674 227.916 24.298C226.72 24.922 225.351 25.234 223.808 25.234ZM223.808 21.308C224.38 21.308 224.883 21.178 225.316 20.918C225.767 20.658 226.122 20.2767 226.382 19.774C226.642 19.254 226.772 18.6387 226.772 17.928C226.772 17.2173 226.642 16.6193 226.382 16.134C226.122 15.6313 225.767 15.25 225.316 14.99C224.883 14.73 224.38 14.6 223.808 14.6C223.254 14.6 222.751 14.73 222.3 14.99C221.867 15.25 221.512 15.6313 221.234 16.134C220.974 16.6193 220.844 17.2173 220.844 17.928C220.844 18.6387 220.974 19.254 221.234 19.774C221.512 20.2767 221.867 20.658 222.3 20.918C222.751 21.178 223.254 21.308 223.808 21.308Z" fill="#202941"/>
</svg>
