<svg width="154" height="20" viewBox="0 0 154 20" fill="none" xmlns="http://www.w3.org/2000/svg">
<g clip-path="url(#clip0_8019_2682)">
<path d="M29.0439 19.0219V0H32.9046L37.4925 13.4685C37.9155 14.7227 38.224 15.6613 38.4179 16.2841C38.6383 15.5921 38.9821 14.5757 39.4492 13.2349L44.0899 0H47.5407V19.0219H45.0683V3.10112L39.4359 19.0219H37.1222L31.5163 2.82863V19.0219H29.0439Z" fill="#202941"/>
<path d="M60.5771 19.0218V16.9976C59.4841 18.5547 57.9989 19.3332 56.1215 19.3332C55.2929 19.3332 54.5172 19.1775 53.7944 18.8661C53.0805 18.5547 52.5472 18.1654 52.1946 17.6983C51.8509 17.2225 51.6085 16.643 51.4675 15.9596C51.3705 15.5012 51.322 14.7745 51.322 13.7797V5.24194H53.7019V12.8844C53.7019 14.1041 53.7504 14.9259 53.8474 15.3498C53.9972 15.964 54.3145 16.4484 54.7993 16.803C55.284 17.149 55.8834 17.322 56.5974 17.322C57.3113 17.322 57.9812 17.1447 58.607 16.79C59.2329 16.4268 59.6736 15.938 59.9292 15.3238C60.1936 14.701 60.3258 13.8014 60.3258 12.6249V5.24194H62.7057V19.0218H60.5771Z" fill="#202941"/>
<path d="M66.3945 19.0219V0H68.7744V19.0219H66.3945Z" fill="#202941"/>
<path d="M77.6724 16.9329L78.0163 18.996C77.3464 19.1344 76.747 19.2036 76.2181 19.2036C75.3543 19.2036 74.6844 19.0696 74.2085 18.8014C73.7325 18.5332 73.3976 18.1829 73.2036 17.7504C73.0097 17.3092 72.9128 16.388 72.9128 14.9866V7.05865H71.1675V5.24209H72.9128V1.82956L75.2794 0.428223V5.24209H77.6724V7.05865H75.2794V15.1164C75.2794 15.7824 75.3191 16.2106 75.3983 16.4009C75.4865 16.5912 75.6232 16.7426 75.8082 16.8551C76.0022 16.9676 76.2754 17.0237 76.628 17.0237C76.8924 17.0237 77.2406 16.9935 77.6724 16.9329Z" fill="#202941"/>
<path d="M80.0259 2.6859V0H82.4055V2.6859H80.0259ZM80.0259 19.0219V5.24206H82.4055V19.0219H80.0259Z" fill="#202941"/>
<path d="M86.385 19.0219V0H94.979C96.7071 0 98.0201 0.173006 98.919 0.519016C99.8179 0.856376 100.537 1.45757 101.074 2.32259C101.612 3.18762 101.881 4.14347 101.881 5.19016C101.881 6.5396 101.436 7.6771 100.546 8.60272C99.6549 9.52824 98.2803 10.1165 96.4201 10.3674C97.0994 10.6874 97.6149 11.0031 97.9674 11.3146C98.7164 11.9893 99.4264 12.8326 100.096 13.8447L103.468 19.0219H100.241L97.6765 15.0644C96.9275 13.9226 96.3099 13.0489 95.8252 12.4434C95.3405 11.8379 94.9045 11.414 94.5162 11.1718C94.1377 10.9296 93.7495 10.761 93.3531 10.6658C93.0621 10.6052 92.5863 10.575 91.925 10.575H88.9503V19.0219H86.385ZM88.9503 8.39504H94.4635C95.6355 8.39504 96.5523 8.27832 97.2136 8.04472C97.875 7.80254 98.3767 7.42192 98.7212 6.90291C99.0649 6.37524 99.2367 5.80433 99.2367 5.19016C99.2367 4.29053 98.902 3.55093 98.2317 2.97137C97.5703 2.3918 96.5215 2.10202 95.0852 2.10202H88.9503V8.39504Z" fill="#202941"/>
<path d="M114.772 17.3222C113.89 18.0575 113.04 18.5764 112.22 18.8792C111.409 19.1819 110.536 19.3334 109.603 19.3334C108.059 19.3334 106.874 18.9657 106.046 18.2304C105.217 17.4865 104.803 16.5393 104.803 15.3888C104.803 14.7141 104.958 14.0999 105.266 13.5463C105.583 12.9841 105.993 12.5343 106.495 12.1969C107.007 11.8595 107.58 11.6043 108.214 11.4314C108.681 11.3103 109.386 11.1935 110.33 11.081C112.251 10.8561 113.666 10.5879 114.574 10.2765C114.583 9.9565 114.587 9.75322 114.587 9.66666C114.587 8.71514 114.362 8.04474 113.912 7.6555C113.304 7.12783 112.401 6.864 111.202 6.864C110.083 6.864 109.254 7.05863 108.717 7.44789C108.187 7.8285 107.795 8.50754 107.54 9.48506L105.213 9.17362C105.424 8.19618 105.772 7.40897 106.258 6.8121C106.742 6.20658 107.443 5.74379 108.359 5.42373C109.276 5.09502 110.339 4.93066 111.546 4.93066C112.744 4.93066 113.719 5.06907 114.467 5.34588C115.217 5.62269 115.768 5.97302 116.12 6.39689C116.473 6.8121 116.72 7.33976 116.861 7.97988C116.94 8.37778 116.98 9.09578 116.98 10.1338V13.2479C116.98 15.4191 117.029 16.7945 117.125 17.3741C117.231 17.945 117.434 18.4943 117.734 19.0219H115.248C115.001 18.5375 114.843 17.9709 114.772 17.3222ZM114.574 12.1061C113.71 12.4521 112.414 12.7462 110.686 12.9884C109.708 13.1268 109.016 13.2825 108.611 13.4555C108.205 13.6285 107.892 13.8837 107.672 14.2211C107.452 14.5498 107.341 14.9174 107.341 15.3239C107.341 15.9467 107.58 16.4658 108.055 16.881C108.54 17.2962 109.245 17.5039 110.171 17.5039C111.088 17.5039 111.903 17.3092 112.617 16.9199C113.331 16.522 113.856 15.9814 114.19 15.298C114.446 14.7703 114.574 13.9918 114.574 12.9624V12.1061Z" fill="#202941"/>
<path d="M125.878 16.9329L126.222 18.996C125.551 19.1344 124.952 19.2036 124.424 19.2036C123.56 19.2036 122.89 19.0696 122.414 18.8014C121.938 18.5332 121.603 18.1829 121.409 17.7504C121.215 17.3092 121.118 16.388 121.118 14.9866V7.05865H119.373V5.24209H121.118V1.82956L123.485 0.428223V5.24209H125.878V7.05865H123.485V15.1164C123.485 15.7824 123.524 16.2106 123.604 16.4009C123.692 16.5912 123.828 16.7426 124.014 16.8551C124.208 16.9676 124.481 17.0237 124.833 17.0237C125.098 17.0237 125.446 16.9935 125.878 16.9329Z" fill="#202941"/>
<path d="M137.83 14.5843L140.289 14.8828C139.902 16.2928 139.183 17.3871 138.134 18.1655C137.085 18.9441 135.745 19.3334 134.115 19.3334C132.062 19.3334 130.431 18.7149 129.223 17.4779C128.024 16.2323 127.425 14.4892 127.425 12.2488C127.425 9.9305 128.033 8.1313 129.249 6.85102C130.466 5.57078 132.044 4.93066 133.983 4.93066C135.861 4.93066 137.394 5.55781 138.584 6.8121C139.774 8.06642 140.369 9.83106 140.369 12.1061C140.369 12.2445 140.365 12.4521 140.356 12.7289H129.884C129.972 14.2427 130.409 15.4018 131.193 16.2063C131.977 17.0107 132.956 17.413 134.128 17.413C135.001 17.413 135.745 17.1881 136.362 16.7383C136.98 16.2885 137.469 15.5705 137.83 14.5843ZM130.017 10.8085H137.857C137.751 9.64938 137.451 8.78002 136.957 8.2005C136.199 7.30084 135.217 6.85102 134.009 6.85102C132.916 6.85102 131.995 7.21001 131.246 7.92798C130.505 8.64594 130.095 9.6061 130.017 10.8085Z" fill="#202941"/>
<path d="M142.339 14.9087L144.692 14.5455C144.824 15.471 145.19 16.1803 145.789 16.6734C146.397 17.1665 147.243 17.413 148.328 17.413C149.42 17.413 150.232 17.1967 150.76 16.7643C151.29 16.3231 151.554 15.8083 151.554 15.2202C151.554 14.6925 151.32 14.2773 150.853 13.9745C150.527 13.7669 149.716 13.5031 148.42 13.183C146.675 12.7505 145.463 12.3786 144.784 12.0671C144.115 11.7471 143.603 11.3103 143.251 10.7566C142.907 10.1943 142.735 9.57586 142.735 8.90114C142.735 8.28698 142.876 7.72038 143.158 7.20136C143.449 6.6737 143.842 6.23686 144.335 5.89084C144.705 5.62269 145.207 5.39778 145.842 5.21612C146.486 5.02582 147.173 4.93066 147.905 4.93066C149.006 4.93066 149.972 5.08637 150.8 5.39778C151.637 5.70919 152.255 6.13305 152.651 6.66937C153.048 7.19703 153.321 7.90635 153.471 8.7973L151.144 9.10874C151.038 8.39946 150.729 7.8458 150.219 7.44789C149.716 7.04998 149.002 6.85102 148.077 6.85102C146.984 6.85102 146.203 7.02835 145.737 7.38302C145.269 7.73767 145.035 8.1529 145.035 8.62866C145.035 8.93138 145.133 9.20386 145.326 9.4461C145.52 9.69698 145.825 9.90458 146.239 10.0689C146.477 10.1555 147.178 10.3544 148.341 10.6658C150.024 11.107 151.197 11.4703 151.858 11.7557C152.528 12.0325 153.052 12.4391 153.431 12.9754C153.81 13.5117 154 14.1778 154 14.9736C154 15.7522 153.766 16.4874 153.299 17.1795C152.841 17.8628 152.175 18.3948 151.302 18.7754C150.43 19.1474 149.443 19.3334 148.341 19.3334C146.516 19.3334 145.124 18.9614 144.163 18.2175C143.211 17.4735 142.603 16.3707 142.339 14.9087Z" fill="#202941"/>
<path fill-rule="evenodd" clip-rule="evenodd" d="M14.1842 8.26272L20.2632 2.26274V17.7373L14.1842 11.7373V8.26272ZM11.8917 6L17.9707 0H2.29252L8.37144 6H11.8917ZM6.07895 8.26272L0 2.26274V17.7373L6.07895 11.7373V8.26272ZM8.37144 14L2.29252 20H17.9707L11.8917 14H8.37144Z" fill="#202941"/>
</g>
<defs>
<clipPath id="clip0_8019_2682">
<rect width="154" height="20" fill="white"/>
</clipPath>
</defs>
</svg>
