<svg width="100" height="26" viewBox="0 0 100 26" fill="none" xmlns="http://www.w3.org/2000/svg">
<path d="M0.574597 5.07737C0.5656 4.94046 0.610224 4.80537 0.69931 4.6998C0.746362 4.65099 0.803603 4.61278 0.867097 4.58781C0.930592 4.56283 0.998833 4.55167 1.06713 4.5551H12.2022C12.2734 4.55107 12.3447 4.56188 12.4113 4.58681C12.4779 4.61175 12.5385 4.65025 12.589 4.6998C12.6803 4.81115 12.7269 4.95245 12.7206 5.09602V7.89551C12.7175 8.02986 12.6714 8.15981 12.589 8.26686C12.5432 8.32462 12.4845 8.37114 12.4174 8.40279C12.3502 8.4345 12.2766 8.45044 12.2022 8.44942H4.91943V11.2614H10.5367C10.6631 11.2557 10.7872 11.2908 10.8924 11.362C10.9417 11.4033 10.98 11.4559 11.0038 11.5151C11.0277 11.5743 11.0364 11.6384 11.0292 11.7017V14.1112C11.0286 14.2004 11.0015 14.2874 10.9514 14.3617C10.9013 14.4359 10.8303 14.4943 10.747 14.5295C10.6845 14.5557 10.6166 14.5675 10.5487 14.5639H4.93092V17.4652H12.4826C12.5522 17.4553 12.6231 17.462 12.6895 17.4846C12.7559 17.5072 12.8159 17.5451 12.8643 17.5952C12.9137 17.6458 12.9506 17.7068 12.9721 17.7737C12.9937 17.8406 12.9992 17.9114 12.9884 17.9807V20.8243C12.9876 20.8633 12.9789 20.9018 12.9629 20.9375C12.947 20.9732 12.924 21.0054 12.8953 21.0323C12.8953 21.2397 12.7143 21.3466 12.4395 21.3466H1.0677C0.935862 21.3545 0.806057 21.3117 0.705632 21.2273C0.658155 21.1795 0.621839 21.122 0.599212 21.059C0.576586 20.9959 0.568186 20.9287 0.574597 20.8622V5.07737ZM14.112 21.0752L14.293 20.7293C14.3556 20.6163 14.4309 20.4965 14.5114 20.3772L19.5671 12.7649L17.0143 8.88973L14.4551 5.02028C14.4159 4.96621 14.3806 4.90956 14.3493 4.85071C14.3234 4.79484 14.3066 4.73534 14.2993 4.67437C14.2993 4.61163 14.3556 4.58619 14.4303 4.58619C14.5065 4.59003 14.5822 4.57259 14.6487 4.53589H18.5562C18.6953 4.53645 18.8315 4.57771 18.9476 4.65458C19.0643 4.73202 19.1556 4.8411 19.2114 4.96997L21.9637 9.13503L24.7476 4.97676C24.801 4.85241 24.8878 4.74615 24.9976 4.66984C25.1073 4.59337 25.2368 4.54926 25.3711 4.54267H29.3407C29.4045 4.54776 29.4671 4.56019 29.528 4.57997C29.5501 4.5884 29.569 4.60315 29.5823 4.62231C29.5956 4.64148 29.6028 4.66415 29.6028 4.68736C29.5977 4.79539 29.5534 4.89806 29.478 4.97676L24.3418 12.7649L29.6154 20.6915C29.6815 20.7819 29.7378 20.8791 29.7844 20.9809C29.8233 21.0479 29.8426 21.1242 29.8401 21.2013C29.8401 21.3143 29.7711 21.3709 29.6344 21.3709H25.6148C25.4889 21.3717 25.3662 21.332 25.2654 21.2578C25.1563 21.1783 25.0703 21.0721 25.016 20.9498L21.9637 16.3885L18.943 20.9498C18.8885 21.0722 18.8023 21.1785 18.693 21.2578C18.5918 21.3324 18.4688 21.372 18.3436 21.3709H14.312C14.2556 21.3718 14.2005 21.3541 14.1556 21.3206C14.1332 21.3037 14.1152 21.2817 14.1032 21.2565C14.0911 21.2314 14.0855 21.2037 14.0867 21.1759C14.0852 21.1406 14.094 21.1058 14.112 21.0752ZM32.1183 5.0525C32.1144 4.92386 32.1588 4.79831 32.243 4.6998C32.2898 4.65058 32.3471 4.6121 32.4108 4.5871C32.4745 4.56208 32.5429 4.55116 32.6114 4.5551H36.2878C36.4005 4.5568 36.512 4.58506 36.612 4.63706C36.7338 4.69697 36.8361 4.7908 36.9051 4.9078C37.8539 6.45534 38.7964 7.97973 39.7326 9.48095L42.5792 14.0547V4.98297C42.607 4.8589 42.6802 4.74924 42.7849 4.67493C42.8711 4.60041 42.9823 4.56011 43.097 4.56189H46.2987C46.4407 4.55906 46.5798 4.60597 46.6918 4.69358C46.7452 4.73814 46.7871 4.7944 46.8143 4.85782C46.8414 4.92125 46.853 4.99006 46.8482 5.05871V20.9311C46.8539 20.9935 46.8444 21.0564 46.8204 21.1144C46.7964 21.1724 46.7586 21.2239 46.7102 21.2646C46.6036 21.3405 46.4739 21.3782 46.3424 21.3714H42.7355C42.6381 21.3733 42.5438 21.3371 42.4734 21.2708C42.3874 21.1885 42.3099 21.0978 42.2424 21.0001L39.2838 16.0742C38.298 14.4309 37.3099 12.7889 36.3194 11.1483V20.8746C36.3293 21.0076 36.2893 21.1396 36.2068 21.2454C36.1514 21.2923 36.087 21.3277 36.0174 21.3493C35.9477 21.371 35.8743 21.3785 35.8016 21.3714H32.612C32.5423 21.3794 32.4717 21.3703 32.4065 21.3451C32.3413 21.3199 32.2833 21.2792 32.2378 21.2267C32.1566 21.1321 32.1141 21.0109 32.1189 20.887L32.1183 5.0525ZM84.0901 12.9785C84.0918 13.7497 83.989 14.5176 83.7844 15.262C83.5872 15.9622 83.2953 16.633 82.9165 17.2566C82.1723 18.4966 81.1143 19.526 79.8459 20.2449C78.5235 20.9759 77.0309 21.3574 75.5143 21.3522H69.9786C69.8522 21.3539 69.728 21.3239 69.6166 21.264C69.5102 21.2013 69.4602 21.0752 69.4602 20.874V5.0768C69.4585 5.00242 69.4717 4.92844 69.4999 4.8593C69.528 4.79016 69.5694 4.72726 69.6229 4.67437C69.6711 4.62136 69.7309 4.58011 69.7982 4.55392C69.8654 4.52772 69.9378 4.51729 70.0097 4.52345H75.5459C76.3148 4.52176 77.0803 4.62123 77.824 4.81906C78.5384 5.00963 79.2246 5.29084 79.8648 5.65555C80.4953 6.0178 81.078 6.45522 81.5999 6.95782C82.1217 7.46346 82.5729 8.03478 82.9418 8.65686C83.3188 9.2925 83.6102 9.97342 83.8091 10.6826C84.0091 11.4309 84.1039 12.2036 84.0901 12.9785ZM73.8108 8.60655V17.3194H75.2585L75.7516 17.2821C76.2976 17.2392 76.8303 17.0984 77.3246 16.8666C77.7913 16.639 78.2142 16.3323 78.5729 15.9606C78.9413 15.5781 79.2315 15.1297 79.428 14.6397C79.639 14.114 79.7447 13.5516 79.7401 12.9847C79.7464 12.4021 79.6326 11.8242 79.4056 11.286C79.1786 10.7478 78.843 10.2605 78.4189 9.85342C78.012 9.46303 77.5292 9.15668 76.9999 8.95247C76.4493 8.73141 75.8596 8.62018 75.2648 8.62521L73.8108 8.60655ZM87.0235 5.07737C87.0148 4.94048 87.0591 4.80545 87.1482 4.6998C87.1953 4.65104 87.2528 4.61287 87.3166 4.5879C87.3798 4.56293 87.4482 4.55174 87.5166 4.5551H98.6574C98.728 4.55025 98.7982 4.56069 98.8643 4.5857C98.9303 4.61071 98.9895 4.64966 99.0384 4.6998C99.1344 4.8098 99.1832 4.95188 99.1757 5.09658V7.89608C99.1746 8.03173 99.1257 8.16342 99.0384 8.26686C98.9913 8.32451 98.9309 8.37029 98.862 8.40025C98.7941 8.4297 98.7194 8.4423 98.6453 8.43699H91.3677V11.2489H96.9849C97.1108 11.2433 97.2361 11.2783 97.3407 11.3496C97.3901 11.3909 97.428 11.4435 97.4522 11.5027C97.4763 11.5619 97.4849 11.6259 97.478 11.6892V14.1118C97.4775 14.2245 97.4332 14.3327 97.3533 14.4136C97.3108 14.465 97.2556 14.5054 97.1936 14.5317C97.1321 14.558 97.0642 14.5692 96.997 14.5645H91.3803V17.4646H98.9321C99.0016 17.4549 99.0723 17.4615 99.1384 17.4841C99.2051 17.5068 99.2648 17.5447 99.3131 17.5946C99.3625 17.6453 99.3993 17.7065 99.4211 17.7734C99.4424 17.8403 99.4482 17.9113 99.4378 17.9807V20.8237C99.4355 20.9025 99.4016 20.9771 99.3441 21.0317C99.3441 21.2392 99.1631 21.3466 98.8821 21.3466H87.5166C87.451 21.351 87.3855 21.3428 87.3234 21.3222C87.2614 21.3016 87.2039 21.2692 87.1545 21.2267C87.1074 21.1786 87.0711 21.1211 87.0487 21.0582C87.0263 20.9952 87.0177 20.9282 87.0235 20.8616V5.07737Z" fill="#202941"/>
<path fill-rule="evenodd" clip-rule="evenodd" d="M63.9942 6.10316L57.927 14.6249L55.5322 12.9756C55.1373 12.7043 54.6603 12.931 54.7477 13.3487L56.0253 19.4576C56.0879 19.7543 56.4161 19.9809 56.7212 19.9369L62.9954 19.028C63.4241 18.9658 63.4781 18.4475 63.0839 18.1756L60.6885 16.5263L66.1908 8.79869C67.7339 11.6977 67.6184 15.3219 65.5781 18.1869C62.6655 22.2791 56.9316 23.2728 52.7718 20.4083C48.6115 17.5432 47.6005 11.9046 50.5132 7.81295C53.4264 3.72187 59.1603 2.72766 63.3201 5.59218C63.5551 5.75386 63.7799 5.92456 63.9942 6.10316Z" fill="#202941"/>
<path fill-rule="evenodd" clip-rule="evenodd" d="M60.6484 6.53401C60.5863 6.2367 60.2576 6.01005 59.9524 6.0547L53.6783 6.96301C53.2495 7.02518 53.1955 7.54405 53.5903 7.81535L55.9852 9.46466L50.1829 17.614C50.7917 18.5894 51.5734 19.4494 52.4909 20.1535L58.7467 11.3666L61.1415 13.0159C61.5363 13.2872 62.0133 13.06 61.926 12.6429L60.6484 6.53401Z" fill="#5493E3"/>
</svg>
