<svg width="44" height="44" viewBox="0 0 44 44" fill="none" xmlns="http://www.w3.org/2000/svg">
<rect width="44" height="44" rx="22" fill="#202941"/>
<circle cx="22.5" cy="22.5" r="0.5" fill="#202941"/>
<path d="M30.0307 27.0307L27.0307 30.0307C26.89 30.1714 26.6991 30.2505 26.5001 30.2505C26.3011 30.2505 26.1102 30.1714 25.9695 30.0307C25.8287 29.8899 25.7497 29.6991 25.7497 29.5001C25.7497 29.301 25.8287 29.1102 25.9695 28.9694L27.6898 27.2501H14.5001C14.3012 27.2501 14.1104 27.171 13.9698 27.0304C13.8291 26.8897 13.7501 26.699 13.7501 26.5001C13.7501 26.3011 13.8291 26.1104 13.9698 25.9697C14.1104 25.8291 14.3012 25.7501 14.5001 25.7501H27.6898L25.9695 24.0307C25.8287 23.8899 25.7497 23.6991 25.7497 23.5001C25.7497 23.301 25.8287 23.1102 25.9695 22.9694C26.1102 22.8287 26.3011 22.7496 26.5001 22.7496C26.6991 22.7496 26.89 22.8287 27.0307 22.9694L30.0307 25.9694C30.1005 26.0391 30.1558 26.1218 30.1935 26.2128C30.2313 26.3039 30.2507 26.4015 30.2507 26.5001C30.2507 26.5986 30.2313 26.6962 30.1935 26.7873C30.1558 26.8783 30.1005 26.961 30.0307 27.0307ZM16.9695 21.0307C17.1102 21.1714 17.3011 21.2505 17.5001 21.2505C17.6991 21.2505 17.89 21.1714 18.0307 21.0307C18.1715 20.8899 18.2505 20.6991 18.2505 20.5001C18.2505 20.301 18.1715 20.1102 18.0307 19.9694L16.3104 18.2501H29.5001C29.699 18.2501 29.8898 18.171 30.0304 18.0304C30.1711 17.8897 30.2501 17.699 30.2501 17.5001C30.2501 17.3011 30.1711 17.1104 30.0304 16.9697C29.8898 16.8291 29.699 16.7501 29.5001 16.7501H16.3104L18.0307 15.0307C18.1715 14.8899 18.2505 14.6991 18.2505 14.5001C18.2505 14.301 18.1715 14.1102 18.0307 13.9694C17.89 13.8287 17.6991 13.7496 17.5001 13.7496C17.3011 13.7496 17.1102 13.8287 16.9695 13.9694L13.9695 16.9694C13.8997 17.0391 13.8444 17.1218 13.8067 17.2128C13.7689 17.3039 13.7495 17.4015 13.7495 17.5001C13.7495 17.5986 13.7689 17.6962 13.8067 17.7873C13.8444 17.8783 13.8997 17.961 13.9695 18.0307L16.9695 21.0307Z" fill="white"/>
</svg>
