<svg width="50" height="50" viewBox="0 0 50 50" fill="none" xmlns="http://www.w3.org/2000/svg">
<g clip-path="url(#clip0_4133_8044)">
<rect width="50" height="50" rx="5" fill="#F7F7F7"/>
<path d="M35.2075 15.4553C35.0913 15.3549 34.9499 15.2882 34.7986 15.2622C34.6473 15.2363 34.4917 15.2522 34.3487 15.3081L15.3494 22.7434C15.0801 22.8481 14.8521 23.0374 14.6998 23.2829C14.5475 23.5284 14.479 23.8167 14.5047 24.1045C14.5304 24.3922 14.6489 24.6638 14.8423 24.8784C15.0357 25.093 15.2936 25.239 15.5772 25.2943L20.5 26.2609V31.75C20.499 32.0489 20.5879 32.3413 20.755 32.5892C20.9222 32.8371 21.1599 33.0291 21.4375 33.1403C21.7146 33.2534 22.0194 33.2806 22.3121 33.2182C22.6049 33.1559 22.8721 33.0068 23.0791 32.7906L25.4528 30.3287L29.2187 33.625C29.4904 33.866 29.8409 33.9993 30.2041 34C30.3632 33.9998 30.5214 33.9748 30.6728 33.9259C30.9203 33.8474 31.1428 33.7054 31.3183 33.5141C31.4938 33.3228 31.6162 33.0889 31.6731 32.8356L35.4784 16.2812C35.5125 16.1319 35.5052 15.9762 35.4575 15.8307C35.4098 15.6852 35.3234 15.5554 35.2075 15.4553ZM29.4756 18.8303L21.0766 24.8453L16.4266 23.9331L29.4756 18.8303ZM22 31.75V27.2987L24.3241 29.3368L22 31.75ZM30.2059 32.5L22.4547 25.7031L33.6109 17.7071L30.2059 32.5Z" fill="#202941"/>
</g>
<defs>
<clipPath id="clip0_4133_8044">
<path d="M0 5C0 2.23858 2.23858 0 5 0H45C47.7614 0 50 2.23858 50 5V45C50 47.7614 47.7614 50 45 50H5C2.23858 50 0 47.7614 0 45V5Z" fill="white"/>
</clipPath>
</defs>
</svg>
