<svg width="22" height="22" viewBox="0 0 22 22" fill="none" xmlns="http://www.w3.org/2000/svg">
<rect width="22" height="22" rx="9.16667" fill="white"/>
<path fill-rule="evenodd" clip-rule="evenodd" d="M11 22C4.95 22 0 17.0501 0 10.9452C0.055 4.89535 4.95 -0.0545449 11.055 0.000453937C17.105 0.0554528 22 4.95035 22 11.1102C21.945 17.1051 17.05 22 11 22Z" fill="#FC070C"/>
<path fill-rule="evenodd" clip-rule="evenodd" d="M17.8264 7.7055L17.8264 7.70548L17.8264 7.70544C17.3169 7.21082 16.7787 6.68818 16.3036 6.26652L16.2555 6.23284C16.1754 6.16854 16.0851 6.11811 15.9884 6.08365L15.6217 6.01525L15.6216 6.01523C13.0916 5.54315 4.89103 4.01301 4.72234 4.03353C4.67244 4.04052 4.62475 4.05861 4.58278 4.08647L4.53706 4.12256C4.48076 4.17973 4.43801 4.2488 4.41193 4.32468L4.3999 4.35597V4.52681V4.55328C4.95666 6.10358 6.40294 9.56577 7.73835 12.7626L7.73838 12.7626L7.73839 12.7627L7.7384 12.7627C8.86741 15.4654 9.91718 17.9784 10.2832 18.9859L10.2833 18.9863C10.3315 19.1356 10.4229 19.4191 10.5936 19.4335H10.6321C10.7235 19.4335 11.1133 18.9185 11.1133 18.9185C11.1133 18.9185 18.0818 10.4678 18.7868 9.56789C18.8781 9.45703 18.9587 9.33779 19.0274 9.21176C19.0632 9.01118 18.991 8.80656 18.8374 8.67276C18.5372 8.39561 18.1892 8.0577 17.8265 7.70559L17.8265 7.70556L17.8264 7.7055ZM12.9012 9.65692L15.8753 7.19052L17.6198 8.79789L12.9012 9.65692ZM6.62571 5.29922L11.7462 9.4957L14.9104 6.82718L6.62571 5.29922ZM12.2082 10.5954L17.449 9.75076L11.4574 16.9695L12.2082 10.5954ZM11.3178 10.2898L5.93024 5.7179L10.5382 16.9743L11.3178 10.2898Z" fill="white"/>
</svg>
