<svg width="24" height="24" viewBox="0 0 24 24" fill="none" xmlns="http://www.w3.org/2000/svg">
<rect width="24" height="24.0027" rx="12" fill="#202941"/>
<path d="M14.4551 11.2463L12.5776 12.7499H18.0914V14.4126H10.9411C10.4631 14.7686 10.1802 15.2042 10.1802 15.7571C10.1802 16.7078 10.9411 17.2228 12.2985 17.2228C13.4571 17.2228 14.4551 16.6699 15.2542 15.5223L17.4528 16.988C16.256 18.8098 14.0956 19.7188 12.0576 19.7188C9.38101 19.7188 7.38504 18.4538 7.38504 16.3555C7.38504 15.6814 7.62594 14.9693 8.1039 14.4164H5.90527V12.7537H9.41925L11.3387 11.2501H5.90527V9.58742H13.0174C13.5374 9.11399 13.7783 8.67844 13.7783 8.16335C13.7783 7.33391 13.0174 6.73928 11.8588 6.73928C10.7384 6.73928 9.7825 7.37178 9.10188 8.43983L6.98356 7.01198C8.14214 5.19023 10.0196 4.28125 12.0576 4.28125C14.8145 4.28125 16.6116 5.70532 16.6116 7.64447C16.6116 8.35651 16.3707 9.06854 15.9731 9.58363H18.0914V11.2463H14.4551Z" fill="white"/>
</svg>
