<svg width="22" height="22" viewBox="0 0 22 22" fill="none" xmlns="http://www.w3.org/2000/svg">
<rect width="22" height="22" rx="11" fill="white"/>
<path d="M21.6684 13.661C20.1993 19.5539 14.2307 23.1402 8.33711 21.6707C2.44597 20.2015 -1.14034 14.2326 0.329434 8.34017C1.79792 2.44661 7.76649 -1.13997 13.6583 0.329158C19.5515 1.79829 23.1376 7.76788 21.6683 13.6611L21.6684 13.661H21.6684Z" fill="#50AF95"/>
<path fill-rule="evenodd" clip-rule="evenodd" d="M12.3922 12.2471C12.3144 12.2529 11.9125 12.2769 11.0161 12.2769C10.3031 12.2769 9.79691 12.2555 9.61932 12.2471C6.86396 12.1258 4.80733 11.6462 4.80733 11.0719C4.80733 10.4977 6.86396 10.0187 9.61932 9.8955V11.7694C9.79951 11.7823 10.3154 11.8128 11.0284 11.8128C11.884 11.8128 12.3124 11.7771 12.3896 11.77V9.8968C15.1391 10.0193 17.1912 10.4989 17.1912 11.0719C17.1912 11.6449 15.1397 12.1245 12.3896 12.2464L12.3922 12.2471ZM12.3922 9.703V8.02619H16.2293V5.46918H5.78217V8.02619H9.61867V9.70235C6.50034 9.8456 4.15527 10.4633 4.15527 11.2035C4.15527 11.9437 6.50034 12.5608 9.61867 12.7047V18.078H12.3915V12.7027C15.5027 12.5595 17.8439 11.9424 17.8439 11.2029C17.8439 10.4633 15.5047 9.84624 12.3915 9.70235L12.3922 9.703Z" fill="white"/>
</svg>
